<?xml version="1.0" encoding="utf-8"?>
<!-- Generator: Adobe Illustrator 19.1.0, SVG Export Plug-In . SVG Version: 6.00 Build 0)  -->
<svg version="1.1" id="Layer_1" xmlns="http://www.w3.org/2000/svg" xmlns:xlink="http://www.w3.org/1999/xlink" x="0px" y="0px"
	 viewBox="0 0 64 64" enable-background="new 0 0 64 64" xml:space="preserve">
<path id="Diagram-tebles" d="M63,53h-6V9H39v12H23v10H7v22H1c-0.5527,0-1,0.4472008-1,1c0,0.5527,0.4473,1,1,1h22h16h2h16h6
	c0.5526962,0,1-0.4473,1-1C64,53.4472008,63.5526962,53,63,53z M9,33h14v19.9982986H9V33z M25,53V31v-8h14v30H25z M41,53V21V11h14
	v42H41z"/>
<g>
</g>
<g>
</g>
<g>
</g>
<g>
</g>
<g>
</g>
<g>
</g>
<g>
</g>
<g>
</g>
<g>
</g>
<g>
</g>
<g>
</g>
<g>
</g>
<g>
</g>
<g>
</g>
<g>
</g>
</svg>
