<?xml version="1.0" encoding="iso-8859-1"?>
<!-- Generator: Adobe Illustrator 19.0.0, SVG Export Plug-In . SVG Version: 6.00 Build 0)  -->
<svg version="1.1" id="Layer_1" xmlns="http://www.w3.org/2000/svg" xmlns:xlink="http://www.w3.org/1999/xlink" x="0px" y="0px"
	 viewBox="0 0 512 512" style="enable-background:new 0 0 512 512;" xml:space="preserve">
<g>
	<g>
		<path d="M385.973,224.76H272.696v-17.683c0-9.75,7.933-17.682,17.683-17.682h71.328c28.162,0,51.074-22.912,51.074-51.074
			s-22.911-51.074-51.074-51.074h-71.328c-9.75,0.001-17.683-7.932-17.683-17.682V35.187h-33.391v34.379
			c0,28.162,22.911,51.074,51.074,51.074h71.328c9.75,0,17.683,7.933,17.683,17.683s-7.933,17.683-17.683,17.683h-71.328
			c-28.162,0-51.074,22.911-51.074,51.073v17.683H126.027C56.535,224.76,0,281.296,0,350.787s56.535,126.027,126.027,126.027
			c23.908,0,47.181-6.729,67.3-19.462c16.565-10.483,30.416-24.629,40.516-41.289h44.316c10.1,16.66,23.952,30.807,40.516,41.289
			c20.119,12.732,43.391,19.462,67.3,19.462c69.491,0,126.025-56.535,126.025-126.026S455.465,224.76,385.973,224.76z
			 M385.973,443.422c-35.425,0-67.232-19.728-83.012-51.485l-4.605-9.266h-84.716l-4.605,9.266
			c-15.778,31.757-47.587,51.485-83.012,51.485c-51.078,0-92.633-41.555-92.633-92.635c0-51.08,41.555-92.636,92.635-92.636h259.948
			c51.079,0,92.635,41.557,92.635,92.636C478.61,401.867,437.053,443.422,385.973,443.422z"/>
	</g>
</g>
<g>
	<g>
		<polygon points="142.722,334.091 142.722,308.417 109.331,308.417 109.331,334.091 83.656,334.091 83.656,367.482 
			109.331,367.482 109.331,393.157 142.722,393.157 142.722,367.482 168.396,367.482 168.396,334.091 		"/>
	</g>
</g>
<g>
	<g>
		<path d="M385.973,306.799c-24.255,0-43.989,19.733-43.989,43.989s19.733,43.989,43.989,43.989s43.989-19.733,43.989-43.989
			S410.229,306.799,385.973,306.799z M385.973,361.384c-5.844,0-10.597-4.754-10.597-10.597c0-5.844,4.754-10.597,10.597-10.597
			c5.843,0,10.597,4.754,10.597,10.597C396.571,356.63,391.817,361.384,385.973,361.384z"/>
	</g>
</g>
<g>
</g>
<g>
</g>
<g>
</g>
<g>
</g>
<g>
</g>
<g>
</g>
<g>
</g>
<g>
</g>
<g>
</g>
<g>
</g>
<g>
</g>
<g>
</g>
<g>
</g>
<g>
</g>
<g>
</g>
</svg>
