<?xml version="1.0" encoding="iso-8859-1"?>
<!-- Generator: Adobe Illustrator 19.0.0, SVG Export Plug-In . SVG Version: 6.00 Build 0)  -->
<svg version="1.1" id="Layer_1" xmlns="http://www.w3.org/2000/svg" xmlns:xlink="http://www.w3.org/1999/xlink" x="0px" y="0px"
	 viewBox="0 0 512 512" style="enable-background:new 0 0 512 512;" xml:space="preserve">
<path style="fill:#00D8E0;" d="M326.697,322.127c-5.273,0-10.492-2.326-14.014-6.786c-6.105-7.733-4.785-18.952,2.948-25.056
	l95.634-75.5c7.734-6.106,18.952-4.785,25.056,2.948s4.785,18.952-2.948,25.056l-95.634,75.5
	C334.466,320.873,330.567,322.127,326.697,322.127z"/>
<g>
	<path style="fill:#B9F7F9;" d="M255.702,346.387h-79.684c-9.852,0-17.84-7.987-17.84-17.84c0-9.852,7.987-17.84,17.84-17.84h79.684
		c9.852,0,17.84,7.987,17.84,17.84C273.542,338.399,265.555,346.387,255.702,346.387z"/>
	<path style="fill:#B9F7F9;" d="M17.826,511.702c-3.617,0-7.266-1.095-10.423-3.374c-7.99-5.765-9.794-16.916-4.028-24.904
		l95.36-132.166c5.765-7.99,16.914-9.795,24.905-4.029c7.99,5.765,9.794,16.916,4.028,24.904L32.307,504.299
		C28.821,509.132,23.362,511.702,17.826,511.702z"/>
</g>
<path style="fill:#FF9900;" d="M118.932,493.393v-40.689c0-9.158,6.709-17.191,15.811-18.196
	c10.761-1.187,19.869,7.206,19.869,17.728v41.626c0,10.521-9.108,18.915-19.869,17.728
	C125.64,510.584,118.932,502.551,118.932,493.393z"/>
<path style="fill:#FF4F19;" d="M136.771,434.396v77.305c9.852,0,17.84-7.987,17.84-17.84v-41.626
	C154.611,442.383,146.624,434.396,136.771,434.396z"/>
<path style="fill:#FF9900;" d="M118.932,388.733v-19.281c0-9.158,6.709-17.191,15.811-18.196
	c10.761-1.187,19.869,7.206,19.869,17.728v20.218c0,10.521-9.108,18.915-19.869,17.728
	C125.64,405.925,118.932,397.891,118.932,388.733z"/>
<path style="fill:#FF4F19;" d="M136.771,351.144v55.898c9.852,0,17.84-7.987,17.84-17.84v-20.218
	C154.611,359.132,146.624,351.144,136.771,351.144z"/>
<path style="fill:#FF9900;" d="M278.299,388.733v-19.281c0-9.158,6.709-17.191,15.811-18.196
	c10.761-1.187,19.869,7.206,19.869,17.728v20.218c0,10.521-9.108,18.915-19.869,17.728
	C285.008,405.925,278.299,397.891,278.299,388.733z"/>
<path style="fill:#FF4F19;" d="M296.139,351.144v55.898c9.852,0,17.84-7.987,17.84-17.84v-20.218
	C313.979,359.132,305.991,351.144,296.139,351.144z"/>
<path style="fill:#FF9900;" d="M278.299,493.393v-40.689c0-9.158,6.709-17.191,15.811-18.196
	c10.761-1.187,19.869,7.206,19.869,17.728v41.626c0,10.521-9.108,18.915-19.869,17.728
	C285.008,510.584,278.299,502.551,278.299,493.393z"/>
<path style="fill:#FF4F19;" d="M296.139,434.396v77.305c9.852,0,17.84-7.987,17.84-17.84v-41.626
	C313.979,442.383,305.991,434.396,296.139,434.396z"/>
<path style="fill:#FF9900;" d="M436.478,493.393v-40.689c0-9.158,6.709-17.191,15.811-18.196
	c10.761-1.187,19.869,7.206,19.869,17.728v41.626c0,10.521-9.108,18.915-19.869,17.728
	C443.187,510.584,436.478,502.551,436.478,493.393z"/>
<path style="fill:#FF4F19;" d="M454.318,434.396v77.305c9.852,0,17.84-7.987,17.84-17.84v-41.626
	C472.157,442.383,464.17,434.396,454.318,434.396z"/>
<g>
	<path style="fill:#FF9900;" d="M436.478,388.733v-40.689c0-9.158,6.709-17.191,15.811-18.196
		c10.761-1.187,19.869,7.206,19.869,17.728v41.626c0,10.521-9.108,18.915-19.869,17.728
		C443.187,405.925,436.478,397.891,436.478,388.733z"/>
	<path style="fill:#FF9900;" d="M436.478,285.263V244.57c0-9.158,6.709-17.191,15.811-18.196
		c10.761-1.187,19.869,7.206,19.869,17.728v41.631c0,10.521-9.108,18.915-19.869,17.728
		C443.187,302.455,436.478,294.421,436.478,285.263z"/>
</g>
<path style="fill:#FFDB2D;" d="M136.177,386.823c-31.806,0-57.682-25.876-57.682-57.682s25.876-57.682,57.682-57.682
	s57.682,25.876,57.682,57.682S167.982,386.823,136.177,386.823z"/>
<path style="fill:#FF9900;" d="M136.771,271.46v115.363c31.806,0,57.682-25.876,57.682-57.682S168.577,271.46,136.771,271.46z"/>
<g>
	<path style="fill:#FFDB2D;" d="M295.544,386.823c-31.806,0-57.682-25.876-57.682-57.682s25.876-57.682,57.682-57.682
		s57.682,25.876,57.682,57.682S327.35,386.823,295.544,386.823z"/>
	<path style="fill:#FFDB2D;" d="M453.723,261.946c-31.806,0-57.682-25.876-57.682-57.682s25.876-57.682,57.682-57.682
		s57.682,25.876,57.682,57.682S485.529,261.946,453.723,261.946z"/>
</g>
<path style="fill:#A7A9AC;" d="M493.565,511.701H17.84c-9.852,0-17.84-7.987-17.84-17.84V18.137c0-9.852,7.987-17.84,17.84-17.84
	s17.84,7.987,17.84,17.84v457.885h457.885c9.852,0,17.84,7.987,17.84,17.84C511.405,503.714,503.417,511.701,493.565,511.701z"/>
<path style="fill:#808285;" d="M493.691,476.022H296.139v35.679h198.02c10.521,0,18.915-9.108,17.728-19.869
	C510.882,482.731,502.849,476.022,493.691,476.022z"/>
<g>
	<path style="fill:#FF4F19;" d="M454.318,329.737v77.305c9.852,0,17.84-7.987,17.84-17.84v-41.626
		C472.157,337.724,464.17,329.737,454.318,329.737z"/>
	<path style="fill:#FF4F19;" d="M454.318,226.266v77.305c9.852,0,17.84-7.987,17.84-17.84v-41.626
		C472.157,234.254,464.17,226.266,454.318,226.266z"/>
</g>
<g>
	<path style="fill:#FF9900;" d="M296.139,271.46v115.363c31.806,0,57.682-25.876,57.682-57.682S327.945,271.46,296.139,271.46z"/>
	<path style="fill:#FF9900;" d="M454.318,146.582v115.363c31.806,0,57.682-25.876,57.682-57.682S486.123,146.582,454.318,146.582z"
		/>
</g>
<g>
</g>
<g>
</g>
<g>
</g>
<g>
</g>
<g>
</g>
<g>
</g>
<g>
</g>
<g>
</g>
<g>
</g>
<g>
</g>
<g>
</g>
<g>
</g>
<g>
</g>
<g>
</g>
<g>
</g>
</svg>
